# xmcd CD database file
#
# Track frame offsets:
#	150
#	24923
#	82776
#	128683
#	170967
#	231305
#
# Disc length: 3588 seconds
#
# Revision: 0
# Processed by: cddbd v1.5.2PL0 Copyright (c) Steve Scherf et al.
# Submitted via: CDex 1.70beta2
#
DISCID=400e0206
DTITLE=Joe Moffett - Ad Faunum
DYEAR=2010
DGENRE=Jazz
TTITLE0=Herdsmen
TTITLE1=The Other Species
TTITLE2=Matador
TTITLE3=Riding the Pegasus Down
TTITLE4=Dove Tail
TTITLE5=Where Buzzards Fly
EXTD=YEAR: 2010
EXTT0=
EXTT1=
EXTT2=
EXTT3=
EXTT4=
EXTT5=
PLAYORDER=
